<svg version="1" xmlns="http://www.w3.org/2000/svg" width="750.667" height="750.667" viewBox="0 0 563.000000 563.000000"><path d="M287.3 36.4c-14.5 4.7-29.4 15.1-41.1 28.7-4.2 5-7.9 9.5-8.2 10.2-.3.7-2.6 4.3-5.1 8.2-7.5 11.3-12.3 22-20 43.9-1.4 3.8-1.5 3.9-10.9 6.3-15.4 3.9-34.5 10.9-42.5 15.5-1.1.7-3.3 1.9-5 2.8-5.8 3-16 9.4-19.7 12.2-2.1 1.6-4.2 2.7-4.8 2.3-.6-.4-.9-.3-.8.2.2.4-2 2.8-4.7 5.2-10.1 9.1-17.8 16.8-22.7 22.9C96.1 201.9 88 213.7 88 215c0 .4-.7 1.3-1.5 2-1.2 1-2.4.7-6.2-1.5-2.7-1.5-7.7-4.3-11.3-6.3-3.6-1.9-7.6-4.2-9-5.1-1.4-.9-4.1-2.4-6.1-3.5-3.5-1.7-3.7-2.1-4.1-7.7-.7-10-6.9-15.9-16.8-15.9-10.6 0-17.7 7.9-16.8 18.7.7 8.2 5.9 14 13.6 15 4.1.5 4.3.7 9.2 10 2.8 5.1 4.8 9.9 4.4 10.5-.4.6-.3.8.4.4.9-.5 2.9 3.2 2.3 4.3-.2.2.2.7.7 1 .5.3 6.2 10.7 12.5 23.1 10.8 21.2 11.5 22.9 12.1 30 .4 4.1 1.4 10.4 2.2 14 .8 3.6 1.9 9.4 2.4 12.9.5 3.8 1.7 7.5 2.9 9 1.1 1.4 3.5 5.5 5.3 9.1 15.6 31.2 42.7 56.8 78.6 74.2 41.7 20.1 93.6 26.1 141.2 16.3 13-2.7 33.4-9.1 41-13 2.8-1.4 5.5-2.3 6-2 .4.3 1 .2 1.2-.3.6-1.6 14-8.2 15.1-7.6.7.4.9.4.5 0-.4-.5 3.7-3.7 9-7.3 5.3-3.5 13.1-9.4 17.2-13.1 4.1-3.7 7.8-6.6 8.3-6.4.5.1.6-.2.3-.6-.8-1.4 3.1-4.5 4.5-3.6.8.4 1 .3.5-.5-.5-.7 1.4-3.6 4.6-7.3 11-12.8 22.7-34.2 27.2-50.2 1.4-5 2.9-9.3 3.3-9.7.5-.3 6.4-2 13.3-3.8 6.9-1.7 16.6-4.2 21.5-5.6 11-3 44.9-11.9 56.3-14.8 4.7-1.2 7.8-2.4 7-2.8-.7-.3-6.5-1.9-12.8-3.4-6.3-1.4-23.2-5.5-37.5-9-22.8-5.5-39.6-9.6-45.9-11-2.7-.6-3-1.2-4.6-7.5-1.4-5.9-5.9-17.9-8.9-23.8l-1.8-3.5 7.8-10.6c8.5-11.5 20.2-33.8 24.2-46.1 4.6-14.2 6.2-23.7 6.2-37.5-.1-14.8-1.2-20.9-6.1-31.2-15.9-33.6-57.4-36.3-99.9-6.4l-5.9 4.2-1.4-6.7c-2.9-14.5-11.9-31.5-20.5-38.9-13-11.2-29.8-14.4-46.4-9.1zM49 475.9c0 .5 2 5.4 4.4 10.8 2.4 5.4 7.4 16.7 11.1 25.1 5 11.3 7.2 15.2 8.4 15 .8-.2 2.9-3.6 4.7-7.8 9.2-21.6 13.3-30.5 14.1-30.7.5-.2 3.5 5.6 6.7 12.9 10 22.8 11.5 25.8 12.8 25.8.7 0 4.5-7.2 8.3-15.9 3.8-8.8 7.4-15.7 7.9-15.4.5.4.6.1.2-.5-.4-.7 1.1-5.1 3.3-9.8 2.3-4.8 4.1-9.1 4.1-9.5 0-.5-1.9-.9-4.2-.9h-4.3l-7.5 17.6c-7.2 16.8-7.5 17.4-8.7 14.7-.7-1.5-3.5-8-6.4-14.3-2.8-6.3-5.8-13-6.5-14.8-1.3-2.8-1.9-3.2-5.5-3.2-4.4 0-3-2.3-13.9 22.7l-5.4 12.2-5.8-13.2C56.4 473.1 57.6 475 53 475c-2.2 0-4 .4-4 .9zM161.6 479.8c-1.8 4.3-7.3 16-17.7 37.9-2.1 4.5-3.9 8.4-3.9 8.7 0 .3 2 .6 4.4.6h4.4l2.8-6.4c1.5-3.6 3.1-6.3 3.6-6 .4.3.5-.2.2-1-.5-1.4 1-1.6 11.5-1.6H179l3.7 7.5 3.7 7.5h9.2l-13-26c-12.8-25.4-13.1-26-16.1-26-2.6 0-3.2.6-4.9 4.8zM171 496c2.2 4.4 4 8.2 4 8.5 0 .3-3.6.5-8 .5-7.9 0-9.3-.6-6.5-3 .8-.6 1.3-1.5 1.2-1.8-.2-.8 4.5-12.2 5-12.2.1 0 2.1 3.6 4.3 8zM217.2 477c-3.9 2.4-7.2 7.5-7.2 11.3 0 5.9 4.4 10.9 13.7 15.6 2.3 1.2 5.6 3.4 7.2 5 2.8 2.7 3.1 4.1 2.2 9.3-.1.8-5.9 2.8-8.3 2.8-2.6 0-8.7-2.8-11.5-5.3-2-1.7-2.3-1.8-2.8-.4-.4.8-.5 3-.3 4.9.2 2.7 1 3.6 4.3 5.2 9.2 4.5 20.9 2.7 25.4-3.9 2-2.9 2.3-4.4 1.9-9-.6-6.8-2.6-9.2-12.5-14.7-6.7-3.7-11.3-7.7-11.3-10 0-.5 1.1-2 2.5-3.3 3.3-3.4 9.3-3.4 15.2 0l4.3 2.6v-4.4c0-4-.3-4.5-3.5-6-5.1-2.4-15.1-2.3-19.3.3zM275.6 484.2c-2.3 5.1-6.2 13.5-8.6 18.5-2.4 5.3-4.7 9-5.3 8.6-.6-.3-.7-.1-.3.6.4.6-.6 4.1-2.3 7.7-1.7 3.7-3.1 6.8-3.1 7 0 .2 2 .4 4.3.4h4.4l3-6.5c1.7-3.5 3.3-6.1 3.7-5.8.4.4.4 0 0-1-.6-1.5.5-1.7 11.5-1.7H295l3.7 7.4c3.6 7.4 3.7 7.4 8 7.8 2.4.2 4.3 0 4.3-.5 0-.4-5.7-12.2-12.7-26.2-12.1-24.3-12.8-25.5-15.5-25.5-2.6 0-3.2.8-7.2 9.2zM287 496c2.2 4.4 4 8.2 4 8.5 0 .3-3.6.5-8 .5s-8-.2-8-.5c0-.2.5-1.6 1.2-3 .9-1.9 1.4-2.2 2.1-1.3.6.9.7.8.4-.4-.5-1.4 3.1-11.8 4-11.8.1 0 2.1 3.6 4.3 8zM329 501v26h13.2c11.4 0 13.8-.3 17.6-2.1 10.7-5.2 11-17.4.5-23.1l-4.3-2.4 2.4-1.4c3.2-1.7 4.8-5.7 4.4-11-.2-3.6-.9-4.8-4-7.3-4.4-3.5-9.3-4.6-21-4.7H329v26zm22.8-16.4c2.2 1.5 3 6.6 1.4 9-1.4 2.2-5.1 3.4-10.1 3.4H338v-14h5.8c3.6 0 6.6.6 8 1.6zm1.8 21.3c-.3.5.2.8 1.1.7 2.6-.2 4.9 4.7 3.8 8.1-1.4 3.9-4.9 5.3-13.2 5.3H338v-15h8.1c4.4 0 7.8.4 7.5.9zM392 501v26h33.6l-.4-3.5-.4-3.5H401v-15h23v-7h-23v-14.9l11.8-.3 11.7-.3v-7l-16.2-.3-16.3-.2v26zM449 501v26h33v-7h-24v-15h23v-7h-23v-14.9l11.8-.3 11.7-.3.3-3.8.3-3.7H449v26z"/></svg>